<?xml version="1.0" encoding="UTF-8"?>
<svg width="21px" height="21px" viewBox="0 0 21 21" version="1.1" xmlns="http://www.w3.org/2000/svg" xmlns:xlink="http://www.w3.org/1999/xlink">
    <title>Path</title>
    <g id="Page-1" stroke="none" stroke-width="1" fill="none" fill-rule="evenodd">
        <path d="M17.1569617,12.7463357 C16.4570266,12.0172367 15.5471111,12.0172367 14.8180121,12.7463357 C14.2697296,13.2946182 13.7272799,13.8370678 13.1789975,14.3853503 C13.0273449,14.5370029 12.9048563,14.5661669 12.7240397,14.478675 C12.3915706,14.2686945 11.9949407,14.1170419 11.6624715,13.9012286 C10.0817849,12.8979883 8.74607551,11.6206069 7.56201873,10.1682416 C6.98457231,9.43914263 6.47128661,8.68087966 6.10382071,7.80012806 C6.04549279,7.6193115 6.04549279,7.52598683 6.19714538,7.37433424 C6.7745918,6.85521574 7.2878775,6.31276608 7.83615995,5.76448363 C8.59442292,5.00622066 8.59442292,4.12546906 7.83615995,3.36720609 C7.38120217,2.91224831 6.95540835,2.48645449 6.52961453,2.06066067 C6.07465675,1.60570289 5.64886293,1.15074511 5.19390515,0.724951286 C4.4939701,0.0250162381 3.58405454,0.0250162381 2.85495553,0.724951286 C2.30667308,1.27323374 1.76422341,1.8156834 1.21594096,2.36396586 C0.696822467,2.88308435 0.428514032,3.48969472 0.36435332,4.18379698 C0.271028647,5.30952585 0.545169874,6.40025796 0.941799734,7.46182612 C1.76422341,9.6782871 3.00660812,11.5914429 4.4939701,13.3821101 C6.52961453,15.8143844 8.95605603,17.7275401 11.7849602,19.0924135 C13.0623416,19.6990239 14.3688871,20.1831456 15.7629244,20.2764703 C16.7661646,20.3347982 17.6177522,20.0664898 18.3118545,19.302394 C18.7668123,18.7541116 19.3150947,18.2991538 19.7992165,17.7858681 C20.5283155,17.0276051 20.5283155,16.1176895 19.7992165,15.3885905 C18.9184649,14.5078389 18.0377133,13.6270873 17.1569617,12.7463357 Z" id="Path" fill="#FFFFFF" fill-rule="nonzero"></path>
    </g>
</svg>