<?xml version="1.0" encoding="UTF-8"?>
<svg width="19px" height="19px" viewBox="0 0 19 19" version="1.1" xmlns="http://www.w3.org/2000/svg" xmlns:xlink="http://www.w3.org/1999/xlink">
    <title>Shape</title>
    <g id="Page-1" stroke="none" stroke-width="1" fill="none" fill-rule="evenodd">
        <path d="M16.4396468,0 L2.56030676,0 C1.14631652,0 0,1.14626163 0,2.56028797 L0,16.4396191 C0,17.8536454 1.14627005,19 2.56030676,19 L9.405531,19 L9.41719728,12.2103682 L7.65326516,12.2103682 C7.42402974,12.2103682 7.2379735,12.0250105 7.2370904,11.7957768 L7.22863118,9.60722677 C7.22774808,9.37673804 7.41436207,9.18942826 7.64485243,9.18942826 L9.40557751,9.18942826 L9.40557751,7.07473311 C9.40557751,4.62064933 10.9043923,3.28438213 13.0936092,3.28438213 L14.8900302,3.28438213 C15.1198699,3.28438213 15.3062514,3.47071588 15.3062514,3.70060031 L15.3062514,5.54599695 C15.3062514,5.77578843 15.1200093,5.96207569 14.8902626,5.96221514 L13.7878225,5.9627264 C12.5972578,5.9627264 12.3667209,6.52846708 12.3667209,7.35871895 L12.3667209,9.18947477 L14.9828027,9.18947477 C15.2320706,9.18947477 15.4254706,9.40713524 15.3960957,9.65468162 L15.1366953,11.8432317 C15.1118755,12.0526655 14.9342784,12.2104612 14.7234023,12.2104612 L12.3783872,12.2104612 L12.3667209,19 L16.4397397,19 C17.85373,19 19,17.8537383 19,16.4397585 L19,2.56028797 C19,1.14626163 17.8536835,0 16.4396468,0 Z" id="Shape" fill="#FFFFFF" fill-rule="nonzero"></path>
    </g>
</svg>