<?xml version="1.0" encoding="UTF-8"?>
<svg width="199px" height="40px" viewBox="0 0 199 40" version="1.1" xmlns="http://www.w3.org/2000/svg" xmlns:xlink="http://www.w3.org/1999/xlink">
    <title>footer-logo</title>
    <g id="Page-1" stroke="none" stroke-width="1" fill="none" fill-rule="evenodd">
        <g id="footer-logo" fill-rule="nonzero">
            <path d="M56.1162109,31 L57.8447266,26.0341797 L66.1064453,26.0341797 L67.8496094,31 L71.7167969,31 L63.6455078,9.671875 L60.3203125,9.671875 L52.2636719,31 L56.1162109,31 Z M65.0664062,23.0458984 L58.8847656,23.0458984 L61.9755859,14.1982422 L65.0664062,23.0458984 Z M80.3447266,31.2929688 C81.4873047,31.2929688 82.5517578,31.0439453 83.5380859,30.5458984 C84.5244141,30.0478516 85.3056641,29.371582 85.8818359,28.5170898 C86.4580078,27.6625977 86.765625,26.7421875 86.8046875,25.7558594 L86.8046875,25.7558594 L83.4501953,25.7558594 C83.4111328,26.5175781 83.0986328,27.1572266 82.5126953,27.6748047 C81.9267578,28.1923828 81.1894531,28.4511719 80.3007812,28.4511719 C79.1289062,28.4511719 78.2329102,28.0288086 77.612793,27.184082 C76.9926758,26.3393555 76.6826172,25.0576172 76.6826172,23.3388672 L76.6826172,23.3388672 L76.6826172,22.7675781 C76.6923828,21.0683594 77.0097656,19.8012695 77.6347656,18.9663086 C78.2597656,18.1313477 79.1484375,17.7138672 80.3007812,17.7138672 C81.1992188,17.7138672 81.9389648,18.0068359 82.5200195,18.5927734 C83.1010742,19.1787109 83.4111328,19.9257812 83.4501953,20.8339844 L83.4501953,20.8339844 L86.8046875,20.8339844 C86.7460938,19.046875 86.1235352,17.6040039 84.9370117,16.5053711 C83.7504883,15.4067383 82.2148438,14.8574219 80.3300781,14.8574219 C78.1035156,14.8574219 76.3457031,15.5825195 75.0566406,17.0327148 C73.7675781,18.4829102 73.1230469,20.4140625 73.1230469,22.8261719 L73.1230469,22.8261719 L73.1230469,23.1923828 C73.1230469,25.7216797 73.7724609,27.7041016 75.0712891,29.1396484 C76.3701172,30.5751953 78.1279297,31.2929688 80.3447266,31.2929688 Z M94.4951172,31.2929688 C95.2470703,31.2929688 96.0283203,31.1806641 96.8388672,30.9560547 L96.8388672,30.9560547 L96.8388672,28.2021484 C96.4189453,28.2998047 96.0039062,28.3486328 95.59375,28.3486328 C94.9785156,28.3486328 94.5512695,28.2143555 94.3120117,27.9458008 C94.0727539,27.6772461 93.953125,27.2402344 93.953125,26.6347656 L93.953125,26.6347656 L93.953125,17.7871094 L96.7509766,17.7871094 L96.7509766,15.1503906 L93.953125,15.1503906 L93.953125,11.2978516 L90.3935547,11.2978516 L90.3935547,15.1503906 L87.7861328,15.1503906 L87.7861328,17.7871094 L90.3935547,17.7871094 L90.3935547,26.7666016 C90.3935547,29.7841797 91.7607422,31.2929688 94.4951172,31.2929688 Z M101.482422,12.9091797 C102.126953,12.9091797 102.625,12.730957 102.976562,12.3745117 C103.328125,12.0180664 103.503906,11.5712891 103.503906,11.0341797 C103.503906,10.4873047 103.328125,10.0332031 102.976562,9.671875 C102.625,9.31054688 102.126953,9.12988281 101.482422,9.12988281 C100.837891,9.12988281 100.342285,9.31054688 99.9956055,9.671875 C99.6489258,10.0332031 99.4755859,10.4873047 99.4755859,11.0341797 C99.4755859,11.5712891 99.6489258,12.0180664 99.9956055,12.3745117 C100.342285,12.730957 100.837891,12.9091797 101.482422,12.9091797 Z M103.254883,31 L103.254883,15.1503906 L99.6953125,15.1503906 L99.6953125,31 L103.254883,31 Z M114.255859,31 L119.749023,15.1503906 L116.072266,15.1503906 L112.717773,26.4882812 L109.319336,15.1503906 L105.62793,15.1503906 L111.165039,31 L114.255859,31 Z M128.757812,31.2929688 C130.076172,31.2929688 131.265137,31.0317383 132.324707,30.5092773 C133.384277,29.9868164 134.231445,29.2519531 134.866211,28.3046875 L134.866211,28.3046875 L132.947266,26.4736328 C131.921875,27.7919922 130.59375,28.4511719 128.962891,28.4511719 C127.800781,28.4511719 126.836426,28.0703125 126.069824,27.3085938 C125.303223,26.546875 124.866211,25.5117188 124.758789,24.203125 L124.758789,24.203125 L135.115234,24.203125 L135.115234,22.7675781 C135.115234,20.2480469 134.526855,18.2998047 133.350098,16.9228516 C132.17334,15.5458984 130.505859,14.8574219 128.347656,14.8574219 C126.990234,14.8574219 125.759766,15.2041016 124.65625,15.8974609 C123.552734,16.5908203 122.695801,17.5600586 122.085449,18.8051758 C121.475098,20.050293 121.169922,21.4638672 121.169922,23.0458984 L121.169922,23.0458984 L121.169922,23.4853516 C121.169922,25.8486328 121.870605,27.7407227 123.271973,29.1616211 C124.67334,30.5825195 126.501953,31.2929688 128.757812,31.2929688 Z M131.599609,21.5957031 L124.817383,21.5957031 C124.983398,20.375 125.366699,19.4228516 125.967285,18.7392578 C126.567871,18.0556641 127.356445,17.7138672 128.333008,17.7138672 C129.319336,17.7138672 130.09082,18.019043 130.647461,18.6293945 C131.204102,19.2397461 131.521484,20.140625 131.599609,21.3320312 L131.599609,21.3320312 L131.599609,21.5957031 Z M149.130859,31.2929688 C151.5625,31.2929688 153.510742,30.6557617 154.975586,29.3813477 C156.44043,28.1069336 157.280273,26.3320312 157.495117,24.0566406 L157.495117,24.0566406 L153.803711,24.0566406 C153.608398,25.5800781 153.144531,26.6689453 152.412109,27.3232422 C151.679688,27.9775391 150.585938,28.3046875 149.130859,28.3046875 C147.539062,28.3046875 146.330566,27.6992188 145.505371,26.4882812 C144.680176,25.2773438 144.267578,23.5195312 144.267578,21.2148438 L144.267578,21.2148438 L144.267578,19.3251953 C144.287109,17.0498047 144.729004,15.3237305 145.593262,14.1469727 C146.45752,12.9702148 147.695312,12.3818359 149.306641,12.3818359 C150.693359,12.3818359 151.745605,12.7211914 152.463379,13.3999023 C153.181152,14.0786133 153.62793,15.1845703 153.803711,16.7177734 L153.803711,16.7177734 L157.495117,16.7177734 C157.260742,14.3837891 156.425781,12.5771484 154.990234,11.2978516 C153.554688,10.0185547 151.660156,9.37890625 149.306641,9.37890625 C147.558594,9.37890625 146.018066,9.79394531 144.685059,10.6240234 C143.352051,11.4541016 142.329102,12.6357422 141.616211,14.1689453 C140.90332,15.7021484 140.546875,17.4746094 140.546875,19.4863281 L140.546875,19.4863281 L140.546875,21.4785156 C140.576172,23.4414062 140.942383,25.1650391 141.645508,26.6494141 C142.348633,28.1337891 143.347168,29.2788086 144.641113,30.0844727 C145.935059,30.8901367 147.431641,31.2929688 149.130859,31.2929688 Z M164.248047,31 L164.248047,8.5 L160.688477,8.5 L160.688477,31 L164.248047,31 Z M173.271484,31.2929688 C175.195312,31.2929688 176.679688,30.6777344 177.724609,29.4472656 L177.724609,29.4472656 L177.8125,31 L181.166992,31 L181.166992,15.1503906 L177.607422,15.1503906 L177.607422,26.5322266 C177.001953,27.7724609 175.834961,28.3925781 174.106445,28.3925781 C172.436523,28.3925781 171.601562,27.3867188 171.601562,25.375 L171.601562,25.375 L171.601562,15.1503906 L168.041992,15.1503906 L168.041992,25.4189453 C168.041992,27.3232422 168.483887,28.7783203 169.367676,29.7841797 C170.251465,30.7900391 171.552734,31.2929688 173.271484,31.2929688 Z M192.519531,31.2929688 C194.443359,31.2929688 195.95459,30.5654297 197.053223,29.1103516 C198.151855,27.6552734 198.701172,25.6972656 198.701172,23.2363281 L198.701172,23.2363281 L198.701172,23.03125 C198.701172,20.453125 198.149414,18.4462891 197.045898,17.0107422 C195.942383,15.5751953 194.423828,14.8574219 192.490234,14.8574219 C190.751953,14.8574219 189.370117,15.4628906 188.344727,16.6738281 L188.344727,16.6738281 L188.344727,8.5 L184.785156,8.5 L184.785156,31 L188.007812,31 L188.183594,29.2861328 C189.21875,30.6240234 190.664062,31.2929688 192.519531,31.2929688 Z M191.625977,28.3925781 C190.073242,28.3925781 188.979492,27.7041016 188.344727,26.3271484 L188.344727,26.3271484 L188.344727,19.7939453 C188.969727,18.4462891 190.053711,17.7724609 191.59668,17.7724609 C192.749023,17.7724609 193.62793,18.2021484 194.233398,19.0615234 C194.838867,19.9208984 195.141602,21.2099609 195.141602,22.9287109 L195.141602,22.9287109 L195.141602,23.3828125 C195.12207,25.0625 194.80957,26.3173828 194.204102,27.1474609 C193.598633,27.9775391 192.739258,28.3925781 191.625977,28.3925781 Z" id="ActiveClub" fill="#FFFFFF"></path>
            <rect id="Rectangle" fill="#FFFFFF" x="0" y="0" width="40" height="40" rx="5"></rect>
            <path d="M33.4003343,5 C33.4003343,6.65685425 32.0571886,8 30.4003343,8 C28.7434801,8 27.4003343,6.65685425 27.4003343,5 C27.4003343,3.34314575 28.7434801,2 30.4003343,2 C32.0571886,2 33.4003343,3.34314575 33.4003343,5 L33.4003343,5 Z M28.0103343,8.07 L28.0103343,8.07 C27.2894084,7.7846198 26.4667272,8.02319735 26.0103343,8.65 L7.33033435,34.15 C7.0174494,34.5755875 6.92017354,35.1224371 7.06709835,35.6298174 C7.21402315,36.1371977 7.58845293,36.547453 8.08033435,36.74 L8.08033435,36.74 C8.80159114,37.0180472 9.61973874,36.7807844 10.0803344,36.16 L28.7603343,10.66 C29.0732193,10.2344125 29.1704952,9.68756294 29.0235704,9.18018262 C28.8766456,8.67280231 28.5022158,8.26254701 28.0103343,8.07 L28.0103343,8.07 Z M15.2603344,9.07 L12.8703344,11.75 L11.8703344,12.92 C11.6197821,13.1927882 11.4806221,13.5496086 11.4803344,13.92 C11.4855718,14.5422417 11.8719828,15.0975518 12.4536207,15.3187069 C13.0352586,15.539862 13.6930017,15.3815687 14.1103344,14.92 L16.6503344,12.07 L21.9003343,12.07 L23.9703343,9.07 L15.2603344,9.07 Z M18.4203343,27.07 L16.2503344,30.07 L22.5003343,30.07 L20.6403343,32.85 C20.3191294,33.2945016 20.2661054,33.8788623 20.5020563,34.3739194 C20.7380071,34.8689765 21.225317,35.1958068 21.7728826,35.2262407 C22.3204482,35.2566746 22.8409754,34.9858602 23.1303343,34.52 L26.1303343,30.07 L28.1303343,27.07 L18.4203343,27.07 Z" id="Shape" fill="#000000"></path>
        </g>
    </g>
</svg>