<?xml version="1.0" encoding="UTF-8"?>
<svg width="65px" height="66px" viewBox="0 0 65 66" version="1.1" xmlns="http://www.w3.org/2000/svg" xmlns:xlink="http://www.w3.org/1999/xlink">
    <title>Star</title>
    <defs>
        <linearGradient x1="91.9976167%" y1="50%" x2="4.47370794%" y2="50%" id="linearGradient-1">
            <stop stop-color="#E6C642" offset="0%"></stop>
            <stop stop-color="#5EB968" offset="100%"></stop>
        </linearGradient>
        <path d="M94.9765585,248.141323 L88.7478277,253.201768 C87.890529,253.898268 86.630926,253.767915 85.9344257,252.910616 C85.7563331,252.691408 85.6266881,252.436966 85.5540252,252.164038 L83.489331,244.408896 C83.2457656,243.494047 82.3941264,242.875295 81.4487873,242.926355 L73.4351834,243.359184 C72.3322215,243.418757 71.3898008,242.572924 71.3302277,241.469962 C71.3149951,241.187939 71.3596677,240.905887 71.4613048,240.642374 L74.3492902,233.154735 C74.6899766,232.271443 74.3646794,231.270281 73.5698719,230.755932 L66.8323192,226.395821 C65.9049881,225.795712 65.6397223,224.557477 66.2398315,223.630146 C66.3932772,223.39303 66.5952039,223.191104 66.8323192,223.037658 L73.5698719,218.677546 C74.3646794,218.163198 74.6899766,217.162036 74.3492902,216.278743 L71.4613048,208.791105 C71.0638136,207.760535 71.5770252,206.602863 72.6075952,206.205371 C72.8711082,206.103734 73.15316,206.059062 73.4351834,206.074294 L81.4487873,206.507124 C82.3941264,206.558184 83.2457656,205.939432 83.489331,205.024582 L85.5540252,197.26944 C85.8382018,196.202052 86.9338615,195.567134 88.0012497,195.85131 C88.274177,195.923973 88.5286195,196.053618 88.7478277,196.231711 L94.9765585,201.292156 C95.7113419,201.88912 96.7640259,201.88912 97.4988093,201.292156 L103.72754,196.231711 C104.584839,195.535211 105.844442,195.665564 106.540942,196.522862 C106.719035,196.74207 106.84868,196.996513 106.921343,197.26944 L108.986037,205.024582 C109.229602,205.939432 110.081241,206.558184 111.026581,206.507124 L119.040184,206.074294 C120.143146,206.014721 121.085567,206.860555 121.14514,207.963517 C121.160373,208.24554 121.1157,208.527592 121.014063,208.791105 L118.126078,216.278743 C117.785391,217.162036 118.110688,218.163198 118.905496,218.677546 L125.643049,223.037658 C126.57038,223.637767 126.835645,224.876002 126.235536,225.803333 C126.082091,226.040448 125.880164,226.242375 125.643049,226.395821 L118.905496,230.755932 C118.110688,231.270281 117.785391,232.271443 118.126078,233.154735 L121.014063,240.642374 C121.411554,241.672944 120.898343,242.830616 119.867773,243.228107 C119.60426,243.329744 119.322208,243.374417 119.040184,243.359184 L111.026581,242.926355 C110.081241,242.875295 109.229602,243.494047 108.986037,244.408896 L106.921343,252.164038 C106.637166,253.231427 105.541506,253.866345 104.474118,253.582168 C104.201191,253.509505 103.946748,253.37986 103.72754,253.201768 L97.4988093,248.141323 C96.7640259,247.544358 95.7113419,247.544358 94.9765585,248.141323 Z" id="path-2"></path>
        <filter x="-6.0%" y="-0.7%" width="111.9%" height="107.6%" filterUnits="objectBoundingBox" id="filter-3">
            <feOffset dx="0" dy="2" in="SourceAlpha" result="shadowOffsetOuter1"></feOffset>
            <feGaussianBlur stdDeviation="1.5" in="shadowOffsetOuter1" result="shadowBlurOuter1"></feGaussianBlur>
            <feColorMatrix values="0 0 0 0 0   0 0 0 0 0   0 0 0 0 0  0 0 0 0.105868786 0" type="matrix" in="shadowBlurOuter1"></feColorMatrix>
        </filter>
    </defs>
    <g id="Page-1" stroke="none" stroke-width="1" fill="none" fill-rule="evenodd">
        <g id="svg" transform="translate(-64.000000, -194.000000)">
            <g id="Star" transform="translate(96.237684, 224.716739) rotate(-11.000000) translate(-96.237684, -224.716739) ">
                <use fill="black" fill-opacity="1" filter="url(#filter-3)" xlink:href="#path-2"></use>
                <use fill="url(#linearGradient-1)" fill-rule="evenodd" xlink:href="#path-2"></use>
            </g>
        </g>
    </g>
</svg>