<?xml version="1.0" encoding="UTF-8"?>
<svg width="16px" height="16px" viewBox="0 0 16 16" version="1.1" xmlns="http://www.w3.org/2000/svg" xmlns:xlink="http://www.w3.org/1999/xlink">
    <title>Shape</title>
    <g id="Page-1" stroke="none" stroke-width="1" fill="none" fill-rule="evenodd">
        <path d="M4.44444444,0 C1.99377778,0 0,1.99377778 0,4.44444444 L0,11.5555556 C0,14.0062222 1.99377778,16 4.44444444,16 L11.5555556,16 C14.0062222,16 16,14.0062222 16,11.5555556 L16,4.44444444 C16,1.99377778 14.0062222,0 11.5555556,0 L4.44444444,0 Z M4.44444444,1.77777778 L11.5555556,1.77777778 C13.0257778,1.77777778 14.2222222,2.97422222 14.2222222,4.44444444 L14.2222222,11.5555556 C14.2222222,13.0257778 13.0257778,14.2222222 11.5555556,14.2222222 L4.44444444,14.2222222 C2.97422222,14.2222222 1.77777778,13.0257778 1.77777778,11.5555556 L1.77777778,4.44444444 C1.77777778,2.97422222 2.97422222,1.77777778 4.44444444,1.77777778 Z M12.4444444,2.66666667 C11.9535247,2.66666667 11.5555556,3.06463578 11.5555556,3.55555556 C11.5555556,4.04647533 11.9535247,4.44444444 12.4444444,4.44444444 C12.9353642,4.44444444 13.3333333,4.04647533 13.3333333,3.55555556 C13.3333333,3.06463578 12.9353642,2.66666667 12.4444444,2.66666667 Z M8,3.55555556 C5.54933333,3.55555556 3.55555556,5.54933333 3.55555556,8 C3.55555556,10.4506667 5.54933333,12.4444444 8,12.4444444 C10.4506667,12.4444444 12.4444444,10.4506667 12.4444444,8 C12.4444444,5.54933333 10.4506667,3.55555556 8,3.55555556 Z M8,5.33333333 C9.47022222,5.33333333 10.6666667,6.52977778 10.6666667,8 C10.6666667,9.47022222 9.47022222,10.6666667 8,10.6666667 C6.52977778,10.6666667 5.33333333,9.47022222 5.33333333,8 C5.33333333,6.52977778 6.52977778,5.33333333 8,5.33333333 Z" id="Shape" fill="#FFFFFF" fill-rule="nonzero"></path>
    </g>
</svg>