<?xml version="1.0" encoding="UTF-8"?>
<svg width="17px" height="17px" viewBox="0 0 17 17" version="1.1" xmlns="http://www.w3.org/2000/svg" xmlns:xlink="http://www.w3.org/1999/xlink">
    <title>Shape</title>
    <g id="Page-1" stroke="none" stroke-width="1" fill="none" fill-rule="evenodd">
        <path d="M15.4545455,0 L1.54545455,0 C0.691590909,0 0,0.691590909 0,1.54545455 L0,15.4545455 C0,16.3084091 0.691590909,17 1.54545455,17 L15.4545455,17 C16.3084091,17 17,16.3084091 17,15.4545455 L17,1.54545455 C17,0.691590909 16.3084091,0 15.4545455,0 Z M5.37354545,13.9090909 L3.094,13.9090909 L3.094,6.57436364 L5.37354545,6.57436364 L5.37354545,13.9090909 Z M4.21059091,5.52577273 C3.47572727,5.52577273 2.8815,4.93 2.8815,4.19668182 C2.8815,3.46336364 3.4765,2.86836364 4.21059091,2.86836364 C4.94313636,2.86836364 5.53890909,3.46413636 5.53890909,4.19668182 C5.53890909,4.93 4.94313636,5.52577273 4.21059091,5.52577273 Z M13.9121818,13.9090909 L11.6341818,13.9090909 L11.6341818,10.3421818 C11.6341818,9.49140909 11.6187273,8.39722727 10.4495909,8.39722727 C9.26345455,8.39722727 9.08109091,9.32372727 9.08109091,10.2803636 L9.08109091,13.9090909 L6.80309091,13.9090909 L6.80309091,6.57436364 L8.98990909,6.57436364 L8.98990909,7.57659091 L9.02081818,7.57659091 C9.32527273,7.00013636 10.0686364,6.392 11.1775,6.392 C13.4856364,6.392 13.9121818,7.91118182 13.9121818,9.88627273 L13.9121818,13.9090909 L13.9121818,13.9090909 Z" id="Shape" fill="#FFFFFF" fill-rule="nonzero"></path>
    </g>
</svg>