<?xml version="1.0" encoding="UTF-8"?>
<svg width="20px" height="18px" viewBox="0 0 20 18" version="1.1" xmlns="http://www.w3.org/2000/svg" xmlns:xlink="http://www.w3.org/1999/xlink">
    <title>Shape</title>
    <g id="Page-1" stroke="none" stroke-width="1" fill="none" fill-rule="evenodd">
        <path d="M5,0 L15,0 C17.7614237,0 20,2.23857625 20,5 L20,13 C20,15.7614237 17.7614237,18 15,18 L5,18 C2.23857625,18 0,15.7614237 0,13 L0,5 C0,2.23857625 2.23857625,0 5,0 Z M10.5,11.2 C10.6873029,11.2061946 10.868639,11.1336601 11,11 L16.86,6 C17.004011,5.87800864 17.0926588,5.70303335 17.105838,5.51475866 C17.1190172,5.32648396 17.055611,5.1408649 16.93,5 C16.6665656,4.75970582 16.2634344,4.75970582 16,5 L10.49,9.62 L5,5 C4.69899853,4.74873053 4.25129933,4.78902346 4,5.09 C3.87672036,5.23343321 3.81672756,5.42064797 3.83368093,5.60901872 C3.8506343,5.79738947 3.94309091,5.97088378 4.09,6.09 L10.09,11.09 C10.216171,11.1952009 10.3757361,11.2519351 10.54,11.2500479 L10.5,11.2 Z" id="Shape" fill="#FFFFFF"></path>
    </g>
</svg>