<?xml version="1.0" encoding="UTF-8"?>
<svg width="45px" height="31px" viewBox="0 0 45 31" version="1.1" xmlns="http://www.w3.org/2000/svg" xmlns:xlink="http://www.w3.org/1999/xlink">
    <title>quote</title>
    <g id="Page-1" stroke="none" stroke-width="1" fill="none" fill-rule="evenodd">
        <g id="quote" transform="translate(-0.003239, 0.001081)" fill="#D81E36" fill-rule="nonzero">
            <path d="M12.123239,0.128918879 C16.9927305,0.797668769 20.4250789,5.24948241 19.833239,10.1289189 C19.223239,14.7289189 15.713239,17.1289189 10.383239,16.7789189 C9.08323896,16.7089189 6.90323896,16.9789189 6.60323896,17.7089189 C6.24262762,19.1246244 6.49297239,20.626693 7.29323896,21.8489189 C8.50973054,23.6247305 9.95558227,25.2319796 11.593239,26.6289189 C13.103239,27.9889189 14.873239,29.1289189 16.593239,30.3789189 C7.03323896,29.0689189 -0.566761039,19.5189189 0.0332389605,11.0689189 C0.523238961,3.84891888 5.71323896,-0.851081121 12.123239,0.128918879 Z M37.123239,0.128918879 C41.9927305,0.797668769 45.4250789,5.24948241 44.833239,10.1289189 C44.223239,14.7289189 40.713239,17.1289189 35.383239,16.7789189 C34.083239,16.7089189 31.903239,16.9789189 31.603239,17.7089189 C31.2426276,19.1246244 31.4929724,20.626693 32.293239,21.8489189 C33.5097305,23.6247305 34.9555823,25.2319796 36.593239,26.6289189 C38.103239,27.9889189 39.873239,29.1289189 41.543239,30.3789189 C32.033239,29.0689189 24.433239,19.5189189 25.033239,11.0689189 C25.523239,3.84891888 30.713239,-0.851081121 37.123239,0.128918879 Z"></path>
        </g>
    </g>
</svg>