<?xml version="1.0" encoding="UTF-8"?>
<svg width="21px" height="20px" viewBox="0 0 21 20" version="1.1" xmlns="http://www.w3.org/2000/svg" xmlns:xlink="http://www.w3.org/1999/xlink">
    <title>tick</title>
    <g id="Page-1" stroke="none" stroke-width="1" fill="none" fill-rule="evenodd">
        <g id="tick" transform="translate(-0.004919, -0.000002)" fill="#185CA9" fill-rule="nonzero">
            <path d="M10.0049187,9.0206259e-07 C12.6773776,0.0110960494 15.2342043,1.09144535 17.1049187,3.0000009 L17.1049187,3.0000009 L16.0049187,4.06000181 C13.1518224,1.22403189 8.69372065,0.795862912 5.35300803,3.03696152 C2.0122954,5.27806013 0.71760541,9.56545763 2.25955638,13.2810021 C3.80150736,16.9965467 7.75147595,19.1074109 11.6973654,18.3245696 C15.6432548,17.5417284 18.4882077,14.0827917 18.4949187,10.0600018 C18.4945057,9.36517893 18.4071606,8.67313753 18.2349187,8.0000009 L19.4949187,6.86000181 C20.8568883,10.9781091 19.4087755,15.5046961 15.90946,18.0676164 C12.4101446,20.6305366 7.65758728,20.6453588 4.14235372,18.1043154 C0.627120158,15.563272 -0.849199089,11.0458056 0.487057358,6.91928315 C1.82331381,2.79276071 5.66743489,-0.00183300391 10.0049187,9.0206259e-07 Z M19.4949187,2.33000181 L20.8149187,3.70000181 L10.0049187,14.6300018 L4.30491865,9.00000181 L5.75491865,7.56000181 L10.0049187,11.8200018 L19.4949187,2.33000181 Z"></path>
        </g>
    </g>
</svg>