<?xml version="1.0" encoding="UTF-8"?>
<svg width="20px" height="17px" viewBox="0 0 20 17" version="1.1" xmlns="http://www.w3.org/2000/svg" xmlns:xlink="http://www.w3.org/1999/xlink">
    <title>Shape</title>
    <g id="Page-1" stroke="none" stroke-width="1" fill="none" fill-rule="evenodd">
        <path d="M20,1.97192893 C19.2638877,2.30655705 18.4740498,2.53349802 17.6441792,2.63481514 C18.4915335,2.11424897 19.140162,1.28855801 19.4475808,0.307706338 C18.6527429,0.789784069 17.7753885,1.13983439 16.8405504,1.32959446 C16.0919544,0.510307056 15.0271487,0 13.8461011,0 C11.5802803,0 9.7431205,1.88475998 9.7431205,4.20801324 C9.7431205,4.53751181 9.77936242,4.85933281 9.8493625,5.16707268 C6.44001053,4.99139374 3.41683565,3.31563804 1.39346633,0.769265843 C1.03977294,1.3898416 0.838563458,2.11294143 0.838563458,2.88482235 C0.838563458,4.34520373 1.56343392,5.63376173 2.66323964,6.38763891 C1.99085292,6.36457267 1.35846628,6.1748126 0.804837917,5.85939517 L0.804837917,5.91196474 C0.804837917,7.9505779 2.21957879,9.65198142 4.09546421,10.0392126 C3.75177083,10.1340927 3.38935194,10.1866623 3.01441669,10.1866623 C2.74948162,10.1866623 2.49327205,10.1597404 2.24206248,10.1084448 C2.76444896,11.7816526 4.27919,12.9983968 6.07386613,13.0317557 C4.67036711,14.1600569 2.90069102,14.8306207 0.978563692,14.8306207 C0.647386678,14.8306207 0.321176995,14.8101025 0,14.7729216 C1.815918,15.9691811 3.97177119,16.6666667 6.28883381,16.6666667 C13.8361664,16.6666667 17.9616633,10.2533464 17.9616633,4.69139851 L17.9479052,4.14649208 C18.7539849,3.55666014 19.451339,2.8155901 20,1.97192893 Z" id="Shape" fill="#FFFFFF" fill-rule="nonzero"></path>
    </g>
</svg>