<?xml version="1.0" encoding="UTF-8"?>
<svg width="25px" height="26px" viewBox="0 0 25 26" version="1.1" xmlns="http://www.w3.org/2000/svg" xmlns:xlink="http://www.w3.org/1999/xlink">
    <title>icons8-whatsapp</title>
    <g id="Page-1" stroke="none" stroke-width="1" fill="none" fill-rule="evenodd">
        <g id="icons8-whatsapp">
            <path d="M0,25.1121096 L1.76623301,18.6641134 C0.676597057,16.7772468 0.103587534,14.6360007 0.104243151,12.4429608 C0.107521238,5.58192572 5.69075819,0 12.5524489,0 C15.8823292,0.00131123461 19.0070012,1.29746664 21.3573893,3.64916591 C23.7071217,6.00152079 25.0013102,9.12750409 25,12.4527951 C24.9973765,19.3138301 19.4128283,24.8964115 12.5524489,24.8964115 C12.5517933,24.8964115 12.5524489,24.8964115 12.5524489,24.8964115 L12.5472039,24.8964115 C10.4643078,24.8957559 8.41681494,24.3732289 6.59878816,23.3812799 L0,25.1121096 Z" id="Path" fill="#FFFFFF" fill-rule="nonzero"></path>
            <path d="M19.8704492,5.13479472 C17.9167097,3.17974392 15.3198095,2.10256469 12.555727,2.10190907 C6.84923397,2.10190907 2.20811908,6.74105711 2.20549602,12.4436164 C2.20484099,14.3980116 2.75162582,16.300613 3.78750116,17.9481793 L4.03401327,18.3395828 L2.98830367,22.1559311 L6.90430582,21.1292344 L7.282597,21.3534556 C8.87050211,22.2962332 10.691807,22.7945024 12.5485152,22.795158 L12.5524489,22.795158 C18.2550082,22.795158 22.8961231,18.1553544 22.8980902,12.4521394 C22.8987455,9.68871251 21.8241888,7.08984552 19.8704492,5.13479472 Z" id="Path" fill="#40C351" fill-rule="nonzero"></path>
            <path d="M9.44088917,7.24129311 C9.20814502,6.72335544 8.96294415,6.71286557 8.74068989,6.70368692 C8.55908389,6.69581952 8.35190883,6.69646175 8.14473376,6.69646175 C7.93755869,6.69646175 7.6005714,6.77449359 7.31537787,7.08591181 C7.03018434,7.39733003 6.22639753,8.14932308 6.22639753,9.67953386 C6.22639753,11.2097446 7.34094694,12.6888173 7.49632824,12.8959924 C7.65170955,13.1031674 9.64806423,16.3438838 12.8094509,17.5908679 C15.4365094,18.6267432 15.9714931,18.4208794 16.5418802,18.3690856 C17.1122672,18.3172918 18.3821979,17.6170926 18.6411668,16.8906686 C18.9001356,16.1642446 18.9001356,15.5420638 18.8227728,15.4122516 C18.7447543,15.2824393 18.5375792,15.2050765 18.2268166,15.0490396 C17.916054,14.8930027 16.3864989,14.1410096 16.1013053,14.0374221 C15.8161118,13.9338345 15.6089368,13.8820408 15.4011061,14.193459 C15.193931,14.5042216 14.5979749,15.2050765 14.4163689,15.4122516 C14.2347629,15.6200822 14.0531569,15.6463069 13.7423943,15.49027 C13.4316317,15.3342331 12.4298485,15.0064245 11.2412143,13.9469469 C10.3167939,13.1228359 9.69264621,12.1046623 9.51104022,11.793244 C9.32943422,11.4824814 9.4913717,11.3139878 9.64740862,11.1586065 C9.7870551,11.01896 9.95817122,10.7953945 10.1142081,10.6137885 C10.2695894,10.4321825 10.3213832,10.3023703 10.4249707,10.0951952 C10.5285583,9.88736455 10.4767645,9.70575856 10.398746,9.55037726 C10.3220388,9.39434034 9.71755967,7.85626214 9.44088917,7.24129311 Z" id="Path" fill="#FFFFFF"></path>
        </g>
    </g>
</svg>