<?xml version="1.0" encoding="UTF-8"?>
<svg width="19px" height="15px" viewBox="0 0 19 15" version="1.1" xmlns="http://www.w3.org/2000/svg" xmlns:xlink="http://www.w3.org/1999/xlink">
    <title>Shape</title>
    <g id="Page-1" stroke="none" stroke-width="1" fill="none" fill-rule="evenodd">
        <path d="M18.4696393,2.42450604 C18.2940002,1.45504791 17.4571325,0.749048497 16.4859525,0.528638857 C15.0326265,0.22040964 12.3429399,0 9.43284405,0 C6.52446963,0 3.79173481,0.22040964 2.33668647,0.528638857 C1.36722877,0.749048497 0.528638857,1.41027742 0.352999704,2.42450604 C0.175639153,3.52655425 0,5.06942173 0,7.05310849 C0,9.03679525 0.175639153,10.5796627 0.396048793,11.6817109 C0.573409345,12.6511691 1.41027742,13.3571685 2.37973556,13.5775781 C3.92260304,13.8858073 6.56751872,14.106217 9.47761454,14.106217 C12.3877108,14.106217 15.0326265,13.8858073 16.575494,13.5775781 C17.5449517,13.3571685 18.3818197,12.6959396 18.5591807,11.6817109 C18.7348194,10.5796627 18.9552291,8.99202477 19,7.05310849 C18.9104586,5.06942173 18.6900489,3.52655425 18.4696393,2.42450604 Z M7.05310849,10.1388435 L7.05310849,3.96737353 L12.4307594,7.05310849 L7.05310849,10.1388435 Z" id="Shape" fill="#FFFFFF" fill-rule="nonzero"></path>
    </g>
</svg>